<svg width="83" height="22" viewBox="0 0 83 22" fill="none" xmlns="http://www.w3.org/2000/svg">
<path d="M6.16061 8.27141L3.3678 16.0569H9.11771L6.16061 8.27141ZM6.89989 6.42969L12.7319 21.7494H11.2534L9.44627 17.1451H2.95709L1.31426 21.7494H0L5.42134 6.42969H6.89989Z" fill="white"/>
<path d="M19.4648 21.7494V6.42969H27.5968V7.43426H20.8612V13.378H25.379V14.3826H20.8612V20.6612H28.0897V21.7494H19.4648Z" fill="white"/>
<path d="M34.9104 19.9909C35.4033 20.242 35.9783 20.4095 36.4711 20.5769C37.1283 20.7443 37.8675 20.9117 38.6068 20.9117C39.6747 20.9117 40.6604 20.7443 41.4818 20.1583C42.1389 19.656 42.4675 18.9026 42.4675 18.1492C42.4675 16.3912 41.0711 15.1354 38.3604 14.382C35.6497 13.6286 34.2533 12.1217 34.3355 9.77772C34.3355 8.68943 34.8283 7.76857 35.6497 7.09885C36.6354 6.34542 37.7854 5.92685 39.0175 6.01056C39.7568 6.01056 40.4139 6.09428 41.0711 6.26171C41.646 6.42914 42.221 6.59656 42.7139 6.84771L42.221 7.936C41.8103 7.76857 41.3996 7.60114 40.9068 7.43371C40.3318 7.26628 39.6747 7.18257 39.0175 7.18257C38.114 7.18257 37.2925 7.35 36.5533 7.85228C36.0604 8.18714 35.7319 9.02429 35.7319 9.77772C35.7319 11.5357 37.1283 12.8752 39.8389 13.6286C42.5496 14.382 43.946 15.8889 43.8639 18.1492C43.8639 19.2375 43.4532 20.242 42.4675 20.9117C41.3175 21.7489 40.1675 22 38.8532 22C38.114 22 37.1283 21.9163 36.389 21.7489C35.814 21.5815 35.1569 21.3303 34.664 20.9955L34.9104 19.9909Z" fill="white"/>
<path d="M53.0644 6.42969H51.668V21.7494H53.0644V6.42969Z" fill="white"/>
<path d="M71.0549 21.6657L67.5228 15.136C67.5228 15.136 66.7835 15.2197 65.7978 15.2197H63.58V21.582H62.1836V6.42969H66.0442C67.3585 6.42969 68.7549 6.68083 69.9049 7.43426C70.9727 8.18769 71.5477 9.44341 71.4656 10.7828C71.4656 11.7037 71.2192 12.5408 70.7263 13.2943C70.2335 13.964 69.5763 14.55 68.7549 14.8011L72.6156 21.6657H71.0549ZM66.0442 7.60169H63.4979V14.0477H65.7978C67.1121 14.0477 68.0156 13.7966 68.7549 13.378C69.6585 12.8757 70.0692 12.0386 70.0692 10.7828C70.0692 9.52712 69.8228 8.60627 69.0013 8.18769C68.0156 7.76912 67.2764 7.60169 66.0442 7.60169Z" fill="white"/>
<path fill-rule="evenodd" clip-rule="evenodd" d="M77.3984 15.5025V0H78.7885V15.5025H77.3984Z" fill="white"/>
<path fill-rule="evenodd" clip-rule="evenodd" d="M81.9532 12.5256L73.6562 3.74439L74.6575 2.76172L82.9545 11.5429L81.9532 12.5256Z" fill="white"/>
</svg>
