<svg width="110" height="22" viewBox="0 0 110 22" fill="none" xmlns="http://www.w3.org/2000/svg">
<path d="M84.7849 8.09678C84.7727 8.09678 84.7645 8.09678 84.7523 8.09678H82.9869C82.9869 8.09678 82.9747 8.10902 82.9747 8.1294V12.8874C82.9747 12.8996 82.9869 12.9159 82.9951 12.92H84.7564C85.7675 12.9281 86.4565 12.7324 86.8724 12.3166C87.2475 11.9374 87.431 11.3462 87.431 10.5063C87.431 9.6787 87.2516 9.09159 86.8765 8.7165C86.4647 8.30064 85.7797 8.09678 84.7849 8.09678ZM84.8135 14.1553C84.789 14.1553 84.7686 14.1553 84.7442 14.1553H82.9828C82.2979 14.1553 81.7393 13.5886 81.7393 12.8874V8.1294C81.7393 7.43222 82.2979 6.86142 82.9828 6.86142H84.7442C86.0692 6.84104 87.0844 7.17128 87.7367 7.8277C88.3442 8.43926 88.6541 9.3403 88.6541 10.5023C88.6541 11.6642 88.3483 12.5612 87.7408 13.1768C87.0926 13.8373 86.1344 14.1553 84.8135 14.1553ZM34.6326 14.192C32.2964 14.192 30.7227 12.708 30.7227 10.5023C30.7227 8.32918 32.329 6.8125 34.6326 6.8125C35.766 6.8125 36.7364 7.1509 37.4376 7.791C37.5599 7.90108 37.6293 8.05194 37.6415 8.2191C37.6496 8.38626 37.5966 8.54526 37.4866 8.67165C37.3765 8.79397 37.2256 8.86735 37.0625 8.87959C36.8954 8.89182 36.7364 8.83474 36.6141 8.72058C36.1452 8.29248 35.4602 8.06417 34.6367 8.06417C32.961 8.06417 31.9621 8.97336 31.9621 10.4982C31.9621 12.023 32.961 12.9322 34.6367 12.9322C35.4643 12.9322 36.1493 12.7039 36.6141 12.2758C36.7364 12.1657 36.8954 12.1086 37.0625 12.1168C37.2256 12.129 37.3765 12.1983 37.4866 12.3247C37.7108 12.5816 37.6904 12.973 37.4376 13.2054C36.7445 13.8536 35.7742 14.192 34.6326 14.192ZM42.8031 8.06824C41.1274 8.06824 40.1285 8.97744 40.1285 10.5023C40.1285 12.0312 41.1274 12.9444 42.8031 12.9444C44.4788 12.9444 45.4777 12.0312 45.4777 10.5023C45.4777 8.98151 44.4788 8.06824 42.8031 8.06824ZM42.8031 14.192C40.4669 14.192 38.8932 12.708 38.8932 10.5023C38.8932 8.32918 40.4995 6.8125 42.8031 6.8125C45.1393 6.8125 46.7089 8.29249 46.7089 10.5023C46.7089 12.7121 45.1393 14.192 42.8031 14.192ZM53.8439 14.192C53.4035 14.192 53.004 13.9637 52.7757 13.5805L49.5425 8.09271C49.5303 8.0764 49.5221 8.07232 49.5181 8.07232L49.5058 13.5723C49.5058 13.9148 49.2327 14.1961 48.8943 14.1961C48.5518 14.1961 48.2745 13.9148 48.2745 13.5723V8.08455C48.2745 7.38737 48.8331 6.81658 49.5181 6.81658C49.9584 6.81658 50.3579 7.05305 50.5944 7.44853L53.8275 12.9363C53.8316 12.9445 53.8398 12.9485 53.8439 12.9485C53.8561 12.9485 53.8642 12.9404 53.8642 12.9241V7.44853C53.8642 7.09382 54.1333 6.81658 54.4758 6.81658C54.8224 6.81658 55.0955 7.09382 55.0955 7.44853V12.9281C55.0955 13.6253 54.537 14.192 53.8439 14.192ZM60.514 14.192C58.1778 14.192 56.6041 12.708 56.6041 10.5023C56.6041 8.32918 58.2104 6.8125 60.514 6.8125C61.6474 6.8125 62.6178 7.1509 63.319 7.791C63.4413 7.90108 63.5147 8.05194 63.5229 8.2191C63.531 8.38626 63.478 8.54526 63.3679 8.67165C63.2579 8.79397 63.107 8.86735 62.9439 8.87959C62.7768 8.89182 62.6178 8.83474 62.4955 8.72058C62.0266 8.29248 61.3416 8.06417 60.5181 8.06417C58.8424 8.06417 57.8435 8.97336 57.8435 10.4982C57.8435 12.023 58.8424 12.9322 60.5181 12.9322C61.3457 12.9322 62.0266 12.7039 62.4955 12.2758C62.6178 12.1657 62.7768 12.1086 62.9439 12.1168C63.107 12.129 63.2579 12.1983 63.3679 12.3247C63.5922 12.5816 63.5718 12.973 63.319 13.2054C62.63 13.8536 61.6596 14.192 60.514 14.192ZM68.6845 8.06824C67.0088 8.06824 66.0099 8.97744 66.0099 10.5023C66.0099 12.0312 67.0088 12.9444 68.6845 12.9444C70.3602 12.9444 71.3631 12.0312 71.3631 10.5023C71.3631 8.98151 70.3602 8.06824 68.6845 8.06824ZM68.6845 14.192C66.3483 14.192 64.7786 12.708 64.7786 10.5023C64.7786 8.32918 66.385 6.8125 68.6845 6.8125C71.0247 6.8125 72.5944 8.29249 72.5944 10.5023C72.5944 12.7121 71.0247 14.192 68.6845 14.192ZM90.9169 14.192C90.5785 14.192 90.3053 13.9107 90.3053 13.5682V7.44853C90.3053 7.10197 90.5785 6.81658 90.9169 6.81658C91.2593 6.81658 91.5366 7.0979 91.5366 7.44853V13.5723C91.5366 13.9148 91.2593 14.192 90.9169 14.192ZM108.95 14.192C108.607 14.192 108.33 13.9107 108.33 13.5682V8.08455C108.314 8.07232 108.306 8.0764 108.298 8.08455L106.83 10.5063C106.61 10.8896 106.206 11.1261 105.753 11.1261C105.317 11.1261 104.926 10.9018 104.685 10.5063L103.226 8.09271C103.217 8.0764 103.201 8.06824 103.197 8.06824L103.185 13.5682C103.185 13.9107 102.908 14.192 102.565 14.192C102.227 14.192 101.954 13.9107 101.954 13.5682V8.08455C101.954 7.38737 102.512 6.81658 103.197 6.81658C103.629 6.81658 104.033 7.04897 104.273 7.44445L105.733 9.85809C105.745 9.87847 105.753 9.88255 105.757 9.88663C105.749 9.88255 105.77 9.86624 105.778 9.85401L107.233 7.44853C107.478 7.04897 107.869 6.82065 108.31 6.82065C108.995 6.82065 109.553 7.38737 109.553 8.08863V13.5723C109.561 13.9148 109.288 14.192 108.95 14.192ZM96.7634 14.192C95.6952 14.192 94.8594 13.8944 94.2805 13.3114C93.6934 12.7161 93.3957 11.8477 93.3957 10.7306V7.44037C93.3957 7.0979 93.6648 6.82065 93.9992 6.82065C94.3416 6.82065 94.6189 7.0979 94.6189 7.44037V10.7306C94.6189 12.2677 95.2875 12.9485 96.7879 12.9485C98.3086 12.9485 98.961 12.284 98.9691 10.7265V7.44037C98.9691 7.0979 99.2423 6.82065 99.5807 6.82065C99.9191 6.82065 100.192 7.0979 100.192 7.44037V10.7306C100.192 12.9648 98.9854 14.1961 96.7879 14.1961C96.7797 14.192 96.7716 14.192 96.7634 14.192ZM79.5744 14.1961C79.4072 14.1961 79.2442 14.1309 79.13 14.0045L76.1252 10.9426C75.9458 10.7591 75.8969 10.49 75.9988 10.2576C76.1007 10.0253 76.3127 9.88255 76.5573 9.88255H77.8335C78.3839 9.88255 78.865 9.45853 78.865 8.97336C78.865 8.50449 78.3757 8.09271 77.8212 8.09271H75.3954C75.3995 8.09271 75.3831 8.11309 75.3831 8.13348V13.5723C75.3831 13.9148 75.1059 14.1961 74.7634 14.1961C74.425 14.1961 74.1519 13.9148 74.1519 13.5723V8.1294C74.1519 7.43222 74.7104 6.86142 75.3954 6.86142H77.8212C79.0688 6.86142 80.084 7.80731 80.084 8.96928C80.084 10.0742 79.1626 11.016 78.0251 11.1138L79.9943 13.1279C80.1248 13.2502 80.1982 13.4215 80.19 13.6049C80.186 13.7721 80.1085 13.9311 79.978 14.0412C79.868 14.1472 79.7212 14.1961 79.5744 14.1961Z" fill="#FBFBF9"/>
<path d="M3.34322 11.0041C3.34322 15.2239 6.75575 18.6486 10.9633 18.6486C12.0927 18.6486 13.1609 18.3959 14.1271 17.9514V21.5352C13.1242 21.8369 12.0641 22 10.9674 22C4.90882 22 0 17.0749 0 11C0 4.92513 4.9129 0 10.9674 0C12.0682 0 13.1282 0.163084 14.1271 0.464789V4.04855C13.1609 3.60823 12.0927 3.35137 10.9633 3.35137C6.75575 3.35952 3.34322 6.78429 3.34322 11.0041ZM10.9674 15.6642C8.39881 15.6642 6.3195 13.5767 6.3195 11.0041C6.3195 8.43143 8.39881 6.34396 10.9674 6.34396C13.536 6.34396 15.6153 8.43143 15.6153 11.0041C15.6153 13.5767 13.5319 15.6642 10.9674 15.6642ZM20.9033 15.6642H16.9974C17.9881 14.3758 18.5875 12.7613 18.5875 11.0082C18.5875 9.25093 17.9881 7.6364 16.9974 6.34396H20.9033C21.5638 7.75871 21.9388 9.34062 21.9388 11.0082C21.9348 12.6716 21.5638 14.2494 20.9033 15.6642Z" fill="#FBFBF9"/>
</svg>
