<svg width="18" height="18" viewBox="0 0 18 18" fill="none" xmlns="http://www.w3.org/2000/svg">
<path d="M9 1.5C13.1421 1.5 16.5 4.85786 16.5 9C16.5 13.1421 13.1421 16.5 9 16.5C4.85786 16.5 1.5 13.1421 1.5 9C1.5 4.85786 4.85786 1.5 9 1.5ZM9 2.625C5.47918 2.625 2.625 5.47918 2.625 9C2.625 12.5208 5.47918 15.375 9 15.375C12.5208 15.375 15.375 12.5208 15.375 9C15.375 5.47918 12.5208 2.625 9 2.625ZM11.5847 6.29779L11.6477 6.35225C11.8474 6.55195 11.8656 6.86445 11.7022 7.08466L11.6477 7.14775L9.79575 9L11.6477 10.8523C11.8474 11.052 11.8656 11.3645 11.7022 11.5847L11.6477 11.6477C11.448 11.8474 11.1355 11.8656 10.9153 11.7022L10.8523 11.6477L9 9.79575L7.14775 11.6477C6.94805 11.8474 6.63555 11.8656 6.41534 11.7022L6.35225 11.6477C6.15255 11.448 6.1344 11.1355 6.29779 10.9153L6.35225 10.8523L8.20425 9L6.35225 7.14775C6.15255 6.94805 6.1344 6.63555 6.29779 6.41534L6.35225 6.35225C6.55195 6.15255 6.86445 6.1344 7.08466 6.29779L7.14775 6.35225L9 8.20425L10.8523 6.35225C11.052 6.15255 11.3645 6.1344 11.5847 6.29779Z" fill="white"/>
</svg>
