<svg width="18" height="19" viewBox="0 0 18 19" fill="none" xmlns="http://www.w3.org/2000/svg">
<path d="M9 2C13.1421 2 16.5 5.35786 16.5 9.5C16.5 13.6421 13.1421 17 9 17C4.85786 17 1.5 13.6421 1.5 9.5C1.5 5.35786 4.85786 2 9 2ZM9 3.125C5.47918 3.125 2.625 5.97918 2.625 9.5C2.625 13.0208 5.47918 15.875 9 15.875C12.5208 15.875 15.375 13.0208 15.375 9.5C15.375 5.97918 12.5208 3.125 9 3.125ZM11.5847 6.79779L11.6477 6.85225C11.8474 7.05195 11.8656 7.36445 11.7022 7.58466L11.6477 7.64775L9.79575 9.5L11.6477 11.3523C11.8474 11.552 11.8656 11.8645 11.7022 12.0847L11.6477 12.1477C11.448 12.3474 11.1355 12.3656 10.9153 12.2022L10.8523 12.1477L9 10.2957L7.14775 12.1477C6.94805 12.3474 6.63555 12.3656 6.41534 12.2022L6.35225 12.1477C6.15255 11.948 6.1344 11.6355 6.29779 11.4153L6.35225 11.3523L8.20425 9.5L6.35225 7.64775C6.15255 7.44805 6.1344 7.13555 6.29779 6.91534L6.35225 6.85225C6.55195 6.65255 6.86445 6.6344 7.08466 6.79779L7.14775 6.85225L9 8.70425L10.8523 6.85225C11.052 6.65255 11.3645 6.6344 11.5847 6.79779Z" fill="#1AB394"/>
</svg>
