<svg width="20" height="17" viewBox="0 0 20 17" fill="none" xmlns="http://www.w3.org/2000/svg">
<path d="M11.7946 13.3067L12.1398 13.9012L7.58187 13.8988L9.64794 10.3713L7.88422 7.3937L2.32098 16.8938L17.1865 16.9062L17.3906 16.8888L15.2943 13.3017L11.7946 13.3067Z" fill="white"/>
<path d="M12.1935 0.0377515L10.0947 3.62237L11.8534 6.60748L12.2036 6.01046L14.4788 9.90852L10.3366 9.89359L8.61317 12.9061L19.7422 12.916L12.3144 0.191981L12.1935 0.0377515Z" fill="white"/>
<path d="M8.16315 7.08689C8.61415 7.86053 9.5515 9.45756 9.5515 9.45756L9.58669 9.51726L9.65731 9.51726L12.6582 9.51726L13.1016 9.51726L7.54334 -0.000266561L-0.000288009 12.888L4.21756 12.9004L5.98127 9.90284L5.26316 9.90284L7.53079 6.01225L8.16315 7.08689Z" fill="white"/>
</svg>
