<svg width="29" height="30" viewBox="0 0 29 30" fill="none" xmlns="http://www.w3.org/2000/svg">
<path d="M14.5 29.1562C6.48603 29.1562 0 22.6711 0 14.6562C0 6.64228 6.48518 0.15625 14.5 0.15625C22.514 0.15625 29 6.64143 29 14.6562C29 22.6702 22.5148 29.1562 14.5 29.1562Z" fill="#FF5752"/>
<path d="M14.5 0.15625V29.1562C22.5148 29.1562 29 22.6702 29 14.6562C29 6.64143 22.514 0.15625 14.5 0.15625Z" fill="#DB3A3C"/>
<path d="M16.2166 22.444H12.7851C12.2513 22.444 11.8184 22.0112 11.8184 21.4773V15.7177H9.10434C8.29925 15.7177 7.8489 14.7888 8.34218 14.1564L13.7387 7.23896C14.1259 6.74273 14.8768 6.7438 15.263 7.23896L20.6595 14.1564C21.1529 14.7888 20.7024 15.7177 19.8974 15.7177H17.1833V21.4773C17.1833 22.0112 16.7505 22.444 16.2166 22.444Z" fill="#EFEFEF"/>
<path d="M20.6586 14.1564L15.2622 7.23898C15.0689 6.99134 14.7845 6.86724 14.5 6.86719V22.4439H16.2158C16.7496 22.4439 17.1824 22.0111 17.1824 21.4772V15.7176H19.8965C20.7015 15.7176 21.152 14.7888 20.6586 14.1564Z" fill="#C5D8DF"/>
</svg>
