<svg width="86" height="21" viewBox="0 0 86 21" fill="none" xmlns="http://www.w3.org/2000/svg">
<path d="M4.29349 17.8281L2.61207 3.82996H5.84504L6.55589 13.5562H6.67208L10.8346 3.82996H13.6028L14.5461 13.5767H14.6691L18.5924 3.82996H21.8254L15.4961 17.8281H12.6117L11.4771 8.676H11.3678L7.17788 17.8281H4.29349ZM21.0855 17.8281L23.4094 3.82996H32.8418L32.4316 6.27007H25.9589L25.4121 9.60557H31.3996L30.9895 12.0457H25.002L24.4552 15.388H30.9553L30.5452 17.8281H21.0855ZM32.8708 17.8281L35.1947 3.82996H40.7995C41.8293 3.82996 42.6631 3.98261 43.3011 4.28791C43.9436 4.5932 44.3924 5.01698 44.6476 5.55922C44.9028 6.09691 44.9711 6.71662 44.8526 7.41835C44.7569 7.96516 44.5633 8.44361 44.2717 8.85371C43.9846 9.26382 43.6292 9.60101 43.2054 9.8653C42.7816 10.1296 42.3214 10.3164 41.8247 10.4258L41.7974 10.5625C42.3259 10.5853 42.8021 10.7356 43.2259 11.0136C43.6497 11.287 43.9664 11.6743 44.176 12.1755C44.3856 12.6768 44.4334 13.2714 44.3195 13.9595C44.1965 14.7022 43.9026 15.3652 43.4378 15.9485C42.973 16.5272 42.3533 16.9851 41.5786 17.3223C40.8086 17.6595 39.8995 17.8281 38.8515 17.8281H32.8708ZM36.2405 15.4085H38.6532C39.4735 15.4085 40.1 15.249 40.5329 14.9301C40.9658 14.6111 41.2255 14.1896 41.3121 13.6656C41.3713 13.2783 41.3326 12.9365 41.1959 12.6403C41.0637 12.3441 40.8382 12.1118 40.5192 11.9432C40.2048 11.7746 39.8061 11.6903 39.3231 11.6903H36.8488L36.2405 15.4085ZM37.1905 9.68759H39.3846C39.7856 9.68759 40.157 9.61696 40.4987 9.4757C40.845 9.32989 41.1298 9.12484 41.3531 8.86055C41.5809 8.5917 41.7245 8.27501 41.7837 7.91048C41.8657 7.40013 41.7518 6.9923 41.4419 6.687C41.1366 6.37715 40.6582 6.22222 40.0066 6.22222H37.7647L37.1905 9.68759Z" fill="white"/>
<path d="M70.9807 3.82996L68.6568 17.8281H65.6972L68.0211 3.82996H70.9807ZM76.1224 17.8281H71.0918L73.4157 3.82996H78.3506C79.7586 3.82996 80.9274 4.11703 81.857 4.69117C82.7911 5.26532 83.4495 6.0878 83.8323 7.15862C84.2151 8.22489 84.2834 9.49849 84.0373 10.9794C83.8004 12.4102 83.3288 13.6382 82.6225 14.6635C81.9162 15.6842 81.0117 16.468 79.909 17.0148C78.8063 17.557 77.5441 17.8281 76.1224 17.8281ZM74.4751 15.2923H76.2932C77.1727 15.2923 77.9428 15.1283 78.6035 14.8002C79.2688 14.4721 79.8133 13.9663 80.2371 13.2828C80.6654 12.5993 80.9684 11.7244 81.1461 10.6582C81.3147 9.64658 81.3033 8.82637 81.112 8.19755C80.9251 7.56417 80.5629 7.10166 80.0252 6.81004C79.4875 6.51385 78.7812 6.36576 77.9063 6.36576H75.9583L74.4751 15.2923Z" fill="white"/>
<path d="M48.9477 1.80797C49.0469 1.2306 49.5475 0.808594 50.1333 0.808594H64.5337C65.2795 0.808594 65.8456 1.48016 65.7194 2.21515L62.7241 19.6582C62.6249 20.2356 62.1243 20.6576 61.5385 20.6576H47.1381C46.3923 20.6576 45.8263 19.986 45.9525 19.251L48.9477 1.80797Z" fill="#1AB394"/>
<path d="M54.8772 17.8164C53.8292 17.8164 52.9269 17.6409 52.1705 17.2901C51.4141 16.9392 50.8536 16.4517 50.4891 15.8274C50.1291 15.2031 50.0129 14.4832 50.1405 13.6675H53.0796C53.034 14.0047 53.0864 14.3032 53.2368 14.5629C53.3917 14.8226 53.6218 15.0231 53.9271 15.1644C54.237 15.3056 54.6015 15.3763 55.0207 15.3763C55.4901 15.3763 55.923 15.2874 56.3194 15.1097C56.7158 14.932 57.0439 14.6905 57.3036 14.3852C57.5679 14.0753 57.7297 13.7267 57.7889 13.3394C57.8482 12.9703 57.798 12.6559 57.6386 12.3962C57.4791 12.1319 57.2239 11.9291 56.873 11.7879C56.5222 11.6466 56.087 11.576 55.5675 11.576H54.2074L54.5696 9.40244H55.7999C56.2556 9.40244 56.6725 9.31814 57.0507 9.14955C57.4335 8.98095 57.7502 8.74628 58.0008 8.44554C58.2514 8.1448 58.4086 7.79621 58.4724 7.39978C58.5271 7.07625 58.5021 6.79374 58.3972 6.55223C58.297 6.30617 58.1193 6.11707 57.8641 5.98492C57.6135 5.84822 57.2877 5.77987 56.8867 5.77987C56.4812 5.77987 56.087 5.85278 55.7042 5.99859C55.3215 6.13985 54.998 6.34262 54.7337 6.60691C54.4694 6.8712 54.3076 7.18105 54.2484 7.53648H51.4255C51.5668 6.72994 51.904 6.0191 52.4371 5.40394C52.9748 4.78879 53.6423 4.30806 54.4398 3.96175C55.2417 3.61088 56.1075 3.43545 57.0371 3.43545C58.0259 3.43545 58.8598 3.62683 59.5387 4.00959C60.2176 4.3878 60.7098 4.88904 61.0151 5.5133C61.3249 6.13301 61.4206 6.80741 61.3021 7.53648C61.17 8.33845 60.8191 8.97411 60.2495 9.44345C59.6845 9.90824 58.9805 10.209 58.1375 10.3457V10.4482C59.0808 10.5758 59.7916 10.9517 60.2701 11.576C60.7531 12.2003 60.9217 12.9589 60.7758 13.8521C60.6528 14.6267 60.3179 15.3125 59.7711 15.9094C59.2243 16.5063 58.5294 16.9734 57.6864 17.3106C56.8434 17.6478 55.907 17.8164 54.8772 17.8164Z" fill="white"/>
</svg>
