<svg width="18" height="18" viewBox="0 0 18 18" fill="none" xmlns="http://www.w3.org/2000/svg">
<path d="M9 1C7.41775 1 5.87103 1.46919 4.55544 2.34824C3.23985 3.22729 2.21447 4.47672 1.60897 5.93853C1.00347 7.40034 0.84504 9.00887 1.15372 10.5607C1.4624 12.1126 2.22433 13.538 3.34315 14.6569C4.46197 15.7757 5.88743 16.5376 7.43928 16.8463C8.99113 17.155 10.5997 16.9965 12.0615 16.391C13.5233 15.7855 14.7727 14.7602 15.6518 13.4446C16.5308 12.129 17 10.5823 17 9C17 6.87827 16.1571 4.84344 14.6569 3.34315C13.1566 1.84285 11.1217 1 9 1V1ZM9 16C7.61553 16 6.26216 15.5895 5.11101 14.8203C3.95987 14.0511 3.06266 12.9579 2.53285 11.6788C2.00303 10.3997 1.86441 8.99223 2.13451 7.63437C2.4046 6.2765 3.07129 5.02922 4.05026 4.05025C5.02922 3.07128 6.2765 2.4046 7.63437 2.1345C8.99224 1.86441 10.3997 2.00303 11.6788 2.53284C12.9579 3.06266 14.0511 3.95986 14.8203 5.11101C15.5895 6.26215 16 7.61553 16 9C16 10.8565 15.2625 12.637 13.9498 13.9497C12.637 15.2625 10.8565 16 9 16Z" fill="white"/>
<path d="M13.9985 6.04969C13.9048 5.95657 13.7781 5.9043 13.646 5.9043C13.5139 5.9043 13.3872 5.95657 13.2935 6.04969L7.7435 11.5747L4.7435 8.57469C4.652 8.4759 4.52501 8.4175 4.39045 8.41234C4.25589 8.40719 4.1248 8.45569 4.026 8.54719C3.92721 8.63869 3.86881 8.76569 3.86365 8.90025C3.8585 9.03481 3.907 9.1659 3.9985 9.26469L7.7435 12.9997L13.9985 6.75969C14.0454 6.71321 14.0826 6.65791 14.108 6.59698C14.1333 6.53605 14.1464 6.4707 14.1464 6.40469C14.1464 6.33869 14.1333 6.27333 14.108 6.21241C14.0826 6.15148 14.0454 6.09618 13.9985 6.04969Z" fill="white"/>
</svg>
